<?xml version="1.0" standalone="no"?>
<!DOCTYPE svg PUBLIC "-//W3C//DTD SVG 20010904//EN"
 "http://www.w3.org/TR/2001/REC-SVG-20010904/DTD/svg10.dtd">
<svg version="1.0" xmlns="http://www.w3.org/2000/svg"
 width="306.000000pt" height="247.000000pt" viewBox="0 0 306.000000 247.000000"
 preserveAspectRatio="xMidYMid meet">

<g transform="translate(0.000000,247.000000) scale(0.100000,-0.100000)"
fill="#000000" stroke="none">
<path d="M690 2175 l0 -105 -120 0 -120 0 0 -110 0 -110 -120 0 -120 0 0 -320
0 -320 120 0 120 0 0 -105 0 -105 120 0 120 0 0 -110 0 -110 120 0 120 0 0
-105 0 -105 120 0 120 0 0 -110 0 -110 120 0 120 0 0 -105 0 -105 125 0 125 0
0 105 0 105 120 0 120 0 0 110 0 110 120 0 120 0 0 105 0 105 120 0 120 0 0
110 0 110 120 0 120 0 0 105 0 105 120 0 120 0 0 320 0 320 -120 0 -120 0 0
110 0 110 -120 0 -120 0 0 105 0 105 -240 0 -240 0 0 -105 0 -105 -120 0 -119
0 -3 -107 -3 -108 -120 0 -120 0 -3 108 -3 107 -119 0 -120 0 0 105 0 105
-240 0 -240 0 0 -105z"/>
</g>
</svg>
